<?xml version="1.0" encoding="UTF-8"?>
<svg width="189px" height="40px" viewBox="0 0 189 40" version="1.1" xmlns="http://www.w3.org/2000/svg" xmlns:xlink="http://www.w3.org/1999/xlink">
    <title>编组 6</title>
    <g id="h5" stroke="none" stroke-width="1" fill="none" fill-rule="evenodd">
        <g id="iPhone-8备份-12" transform="translate(-18.000000, -15.000000)">
            <g id="编组-6" transform="translate(18.000000, 15.000000)">
                <g id="HT-SWAP" transform="translate(44.000000, 7.000000)" fill-rule="nonzero">
                    <g transform="translate(0.752000, 0.744000)">
                        <path d="M5.728,24.256 L5.728,14.464 L13.568,14.464 L13.568,24.256 L19.232,24.256 L19.232,0.448 L13.568,0.448 L13.568,9.504 L5.728,9.504 L5.728,0.448 L-7.10542736e-15,0.448 L-7.10542736e-15,24.256 L5.728,24.256 Z M35.104,24.256 L35.104,5.184 L41.568,5.184 L41.568,0.448 L22.944,0.448 L22.944,5.184 L29.376,5.184 L29.376,24.256 L35.104,24.256 Z" id="HT" fill="#0083FF"></path>
                        <path d="M59.968,24.704 C65.728,24.704 69.056,21.216 69.056,17.248 C69.056,13.888 67.296,11.904 64.352,10.72 L61.376,9.536 C59.264,8.704 57.76,8.192 57.76,6.88 C57.76,5.6 58.848,4.896 60.608,4.896 C62.464,4.896 63.936,5.536 65.504,6.72 L68.352,3.136 C66.272,1.056 63.36,-1.38555833e-13 60.608,-1.38555833e-13 C55.552,-1.38555833e-13 51.968,3.2 51.968,7.2 C51.968,10.656 54.304,12.736 56.8,13.728 L59.84,15.008 C61.888,15.872 63.2,16.32 63.2,17.696 C63.2,18.976 62.208,19.776 60.096,19.776 C58.208,19.776 56,18.784 54.304,17.344 L51.072,21.28 C53.536,23.552 56.864,24.704 59.968,24.704 Z M82.144,24.256 L84.224,13.888 C84.576,12.064 84.864,10.144 85.152,8.352 L85.312,8.352 C85.536,10.144 85.856,12.064 86.24,13.888 L88.384,24.256 L95.584,24.256 L99.712,0.448 L94.272,0.448 L92.736,11.296 C92.448,13.76 92.128,16.288 91.84,18.848 L91.68,18.848 C91.2,16.288 90.784,13.728 90.304,11.296 L87.808,0.448 L83.008,0.448 L80.576,11.296 C80.096,13.76 79.616,16.32 79.168,18.848 L79.04,18.848 L78.08,11.296 L76.576,0.448 L70.72,0.448 L75.072,24.256 L82.144,24.256 Z M105.76,24.256 L107.136,18.784 L114.176,18.784 L115.552,24.256 L121.568,24.256 L114.176,0.448 L107.328,0.448 L99.936,24.256 L105.76,24.256 Z M113.088,14.368 L108.224,14.368 L108.736,12.352 C109.344,9.984 109.984,7.2 110.56,4.704 L110.688,4.704 C111.328,7.136 111.936,9.984 112.576,12.352 L113.088,14.368 Z M129.792,24.256 L129.792,16.352 L132.576,16.352 C137.6,16.352 141.984,13.856 141.984,8.192 C141.984,2.304 137.664,0.448 132.416,0.448 L124.064,0.448 L124.064,24.256 L129.792,24.256 Z M132.288,11.84 L129.792,11.84 L129.792,4.96 L132.128,4.96 C134.88,4.96 136.416,5.792 136.416,8.192 C136.416,10.528 135.072,11.84 132.288,11.84 Z" id="SWAP" fill="#FFFFFF"></path>
                    </g>
                </g>
                <rect id="矩形" fill="#2483FE" x="0" y="0" width="40" height="40" rx="15"></rect>
                <path d="M37,20.4 C37,21.7254834 29.3888407,22.8 20,22.8 C10.6111593,22.8 3,21.7254834 3,20.4 C3,19.0945997 10.3822653,18.0326187 19.5744791,18.0007372 L20,18 C29.3888407,18 37,19.0745166 37,20.4 Z M20.3918668,18.3206454 L19.6081332,18.3206454 C12.0573391,18.3455475 6,19.0878877 6,20 C6,20.9278384 12.2680135,21.68 20,21.68 C27.7319865,21.68 34,20.9278384 34,20 C34,19.0721616 27.7319865,18.32 20,18.32 Z" id="形状结合" fill="#FEFFFE"></path>
                <path d="M18.0448129,8 L18.0448129,32 L10.0396355,32 L10.0396355,8 L18.0448129,8 Z M30.0448129,8 L30.0448129,32 L22.0396355,32 L22.0396355,8 L30.0448129,8 Z" id="形状" fill="#FEFFFE"></path>
            </g>
        </g>
    </g>
</svg>